PathFileType	4	(X/Y/Z)	/Users/itak/Documents/Research/Walk-IL/dataset/trc/00545_00009.trc
DataRate	CameraRate	NumFrames	NumMarkers	Units	OrigDataRate	OrigDataStartFrame	OrigNumFrames
100.000000	100.000000	4	54	mm	100.000000	146	587
Frame#	Time	RPSI			LPSI			L3			STRN			T10			C7			CLAV			RBAK			LBAK			LSHO			LUPA			LAEL			LAOL			LWTS			LWPS			LFRA			LHPS			LHTS			RSHO			RUPA			RAEL			RAOL			RWTS			RWPS			RFRA			RIFD			RHTS			RHPS			RBHD			LFHD			RFHD			LBHD			LHIP			RHIP			RASI			LASI			LKNE			LTHI			LANK			LTIP			LTOE			LMT1			LMT5			LHEE			RKNE			RTHI			RANK			RTIP			RTOE			RMT1			RMT5			RHEE			LIFD			*53			
		X1	Y1	Z1	X2	Y2	Z2	X3	Y3	Z3	X4	Y4	Z4	X5	Y5	Z5	X6	Y6	Z6	X7	Y7	Z7	X8	Y8	Z8	X9	Y9	Z9	X10	Y10	Z10	X11	Y11	Z11	X12	Y12	Z12	X13	Y13	Z13	X14	Y14	Z14	X15	Y15	Z15	X16	Y16	Z16	X17	Y17	Z17	X18	Y18	Z18	X19	Y19	Z19	X20	Y20	Z20	X21	Y21	Z21	X22	Y22	Z22	X23	Y23	Z23	X24	Y24	Z24	X25	Y25	Z25	X26	Y26	Z26	X27	Y27	Z27	X28	Y28	Z28	X29	Y29	Z29	X30	Y30	Z30	X31	Y31	Z31	X32	Y32	Z32	X33	Y33	Z33	X34	Y34	Z34	X35	Y35	Z35	X36	Y36	Z36	X37	Y37	Z37	X38	Y38	Z38	X39	Y39	Z39	X40	Y40	Z40	X41	Y41	Z41	X42	Y42	Z42	X43	Y43	Z43	X44	Y44	Z44	X45	Y45	Z45	X46	Y46	Z46	X47	Y47	Z47	X48	Y48	Z48	X49	Y49	Z49	X50	Y50	Z50	X51	Y51	Z51	X52	Y52	Z52	X53	Y53	Z53	X54	Y54	Z54	

147	1.46	-896.374267578125	1012.418273925781	166.7998352050781	-881.7415771484375	1012.013977050781	33.37211227416992	-885.532470703125	1106.935424804688	90.39740753173828	-638.8597412109375	1281.955322265625	107.5935897827148	-882.5845947265625	1232.035522460938	83.35200500488281	-821.20947265625	1502.84228515625	95.88936614990234	-652.54296875	1394.23388671875	106.2462615966797	-907.5758666992188	1383.517578125	172.3582916259766	-847.657470703125	1449.534790039062	1.747387528419495	-740.6436157226562	1468.676391601562	-67.43762969970703	-742.1016235351562	1343.499877929688	-148.4928894042969	-707.4986572265625	1123.809326171875	-165.1085357666016	-802.0630493164062	1106.295288085938	-131.2944030761719	-576.045166015625	915.5980224609375	-77.04000854492188	-599.0656127929688	877.1106567382812	-151.4999847412109	-668.0170288085938	1045.02490234375	-159.2734375	-577.6557006835938	821.7578125	-134.7435913085938	-537.5580444335938	844.76220703125	-84.7423095703125	-782.8019409179688	1465.148803710938	256.8710327148438	-815.9889526367188	1403.037963867188	321.37548828125	-858.3624877929688	1117.348754882812	366.3851623535156	-908.5501708984375	1104.427612304688	329.2874450683594	-745.1967163085938	883.6598510742188	356.6749572753906	-803.7195434570312	870.0941162109375	414.6129760742188	-855.916015625	1061.594360351562	376.416748046875	-752.1708984375	710.4189453125	367.4137268066406	-729.187255859375	790.453857421875	379.0091247558594	-793.9223022460938	794.24462890625	416.59619140625	-745.7288818359375	1679.833984375	164.4004669189453	-572.8704223632812	1695.985473632812	50.07805633544922	-608.4434814453125	1696.941284179688	189.8036651611328	-697.6251220703125	1677.137939453125	5.733850479125977	-755.3179321289062	925.2916870117188	-90.44158935546875	-774.3323974609375	950.6231689453125	300.1503601074219	-689.7733764648438	975.4752807617188	239.9265441894531	-675.0838012695312	947.7329711914062	-34.57665252685547	-789.03125	484.1738891601562	-10.36367321014404	-761.6615600585938	645.5855712890625	-52.00270080566406	-917.624267578125	31.70664024353027	16.69828033447266	-880.1505737304688	246.7084350585938	-3.335408210754395	-710.6492919921875	39.33654022216797	79.69802093505859	-782.2198486328125	39.9853630065918	112.3277359008789	-793.971923828125	34.83552551269531	5.037664890289307	-989.4649047851562	34.32065200805664	69.07070159912109	-611.0598754882812	531.0503540039062	278.1919555664062	-699.4803466796875	808.4638671875	305.8888244628906	-639.68115234375	46.35305404663086	281.85498046875	-589.1730346679688	384.4262390136719	274.392333984375	-427.8926086425781	94.79537963867188	252.9391174316406	-484.89306640625	79.90979766845703	207.9194183349609	-511.7914123535156	67.28810882568359	308.139404296875	-690.2571411132812	33.72629547119141	223.3963165283203	-536.7518310546875	751.0961303710938	-61.10379791259766	nan	nan	nan	
148	1.47	-893.2516479492188	1011.687316894531	167.4341583251953	-878.637939453125	1011.440063476562	33.99572372436523	-882.34716796875	1106.468505859375	91.04351043701172	-635.4302978515625	1281.205200195312	108.3609237670898	-879.2008666992188	1231.529418945312	84.00511932373047	-817.492919921875	1502.275268554688	96.65283203125	-648.9692993164062	1393.467041015625	107.0986480712891	-904.0777587890625	1383.026977539062	173.0132904052734	-843.9410400390625	1449.042236328125	2.432047605514526	-736.85009765625	1468.065063476562	-66.63546752929688	-738.2685546875	1342.868408203125	-147.6915588378906	-703.5371704101562	1123.174926757812	-164.1227111816406	-798.1817626953125	1105.631225585938	-130.4871826171875	-571.9949340820312	915.232421875	-75.66264343261719	-594.8693237304688	876.6046752929688	-150.0999145507812	-664.003662109375	1044.445678710938	-158.1792144775391	-573.465576171875	821.301025390625	-133.2319793701172	-533.4345703125	844.4188842773438	-83.27976989746094	-779.2612915039062	1464.464477539062	257.6407775878906	-812.5882568359375	1402.34521484375	322.093994140625	-855.6726684570312	1116.724975585938	366.8156433105469	-905.9567260742188	1103.99560546875	329.7393493652344	-743.501708984375	882.52490234375	357.2843627929688	-802.2433471679688	869.2273559570312	415.1191101074219	-853.344970703125	1061.015991210938	376.7498779296875	-751.392578125	709.29736328125	368.0049438476562	-728.0381469726562	789.260009765625	379.6979370117188	-792.82373046875	793.329833984375	417.1400146484375	-741.878662109375	1679.164184570312	165.2090454101562	-568.9674072265625	1695.168579101562	50.9284782409668	-604.6566162109375	1696.112426757812	190.6527557373047	-693.7476806640625	1676.395874023438	6.561348915100098	-752.0033569335938	924.5773315429688	-89.83135223388672	-771.0988159179688	950.078857421875	300.7995300292969	-686.5945434570312	974.8430786132812	240.4148406982422	-672.01416015625	947.1734619140625	-34.09719848632812	-787.6068115234375	483.898193359375	-10.04883766174316	-759.6015625	645.1910400390625	-51.69979095458984	-917.6045532226562	31.7177906036377	16.71726036071777	-879.4660034179688	246.5904998779297	-3.241719961166382	-710.6603393554688	39.34223556518555	79.71714782714844	-782.2404174804688	40.02611541748047	112.3588943481445	-793.9860229492188	34.84778594970703	5.045873641967773	-989.470458984375	34.35543441772461	69.05934906005859	-606.0497436523438	531.3609008789062	279.0048828125	-695.9523315429688	808.1343383789062	306.5969848632812	-626.069580078125	46.16909027099609	283.0386352539062	-581.8405151367188	385.1738586425781	275.3194274902344	-415.121826171875	97.93273162841797	253.5850219726562	-471.9583435058594	82.3590087890625	208.7103729248047	-498.4354553222656	69.02954864501953	309.0462646484375	-676.4380493164062	32.73112106323242	224.5268096923828	-532.4645385742188	750.8544311523438	-59.48960113525391	nan	nan	nan	
149	1.48	-889.9981689453125	1010.929870605469	168.1319122314453	-875.4368896484375	1010.841552734375	34.68661499023438	-879.0492553710938	1105.971069335938	91.73880767822266	-631.90087890625	1280.438232421875	109.1676330566406	-875.71826171875	1230.995239257812	84.71641540527344	-813.6878662109375	1501.68115234375	97.47075653076172	-645.2908325195312	1392.673461914062	107.9884338378906	-900.480224609375	1382.494995117188	173.7173767089844	-840.127197265625	1448.5234375	3.176663875579834	-732.9642944335938	1467.438354492188	-65.77918243408203	-734.326416015625	1342.218505859375	-146.8390045166016	-699.492431640625	1122.512573242188	-163.0678558349609	-794.2197265625	1104.955322265625	-129.6085510253906	-567.9473876953125	914.7437744140625	-74.25704193115234	-590.7088012695312	876.007568359375	-148.6861267089844	-659.9470825195312	1043.811401367188	-157.0355834960938	-569.3417358398438	820.7291259765625	-131.7196807861328	-529.3908081054688	843.9032592773438	-81.78569793701172	-775.6354370117188	1463.742065429688	258.4630432128906	-809.0885620117188	1401.613891601562	322.8637390136719	-852.881591796875	1116.069091796875	367.3067016601562	-903.2864990234375	1103.520629882812	330.279541015625	-741.64013671875	881.3804931640625	357.9493713378906	-800.580810546875	868.3466186523438	415.666015625	-850.6807861328125	1060.4091796875	377.1768493652344	-750.3638305664062	708.175537109375	368.6146850585938	-726.6802368164062	788.0665893554688	380.4095458984375	-791.546142578125	792.4144287109375	417.7557983398438	-737.936279296875	1678.470703125	166.0767211914062	-564.9563598632812	1694.322998046875	51.85957717895508	-600.7677001953125	1695.265869140625	191.5757904052734	-689.76904296875	1675.639526367188	7.445498466491699	-748.5557250976562	923.839111328125	-89.13249206542969	-767.7062377929688	949.5073852539062	301.4520874023438	-683.2562255859375	974.1853637695312	240.9136962890625	-668.8580322265625	946.6026000976562	-33.61064147949219	-786.0537719726562	483.6068725585938	-9.730237007141113	-757.4559326171875	644.7855834960938	-51.38405227661133	-917.5892333984375	31.73119735717773	16.73780250549316	-878.6953125	246.4598083496094	-3.131603956222534	-710.6686401367188	39.34675979614258	79.73645782470703	-782.2799682617188	40.09610748291016	112.4203491210938	-793.9996948242188	34.86235427856445	5.065941333770752	-989.476806640625	34.39301300048828	69.05083465576172	-600.9905395507812	531.6217651367188	279.8376159667969	-692.2980346679688	807.7794799804688	307.2857055664062	-612.6748046875	46.07752990722656	284.2066955566406	-574.5755615234375	385.8876037597656	276.2908325195312	-402.5401000976562	101.0565719604492	254.4306335449219	-459.2522888183594	84.82441711425781	209.6638793945312	-485.4176330566406	70.94116973876953	310.1441040039062	-662.6528930664062	31.77266502380371	225.4677886962891	-528.322998046875	750.4497680664062	-57.87009429931641	nan	nan	nan	
150	1.49	-886.604248046875	1010.147399902344	168.8917541503906	-872.1378173828125	1010.217163085938	35.44507598876953	-875.6444091796875	1105.44580078125	92.49291229248047	-628.2713623046875	1279.6494140625	110.0155410766602	-872.1350708007812	1230.435302734375	85.48679351806641	-809.7945556640625	1501.061279296875	98.34151458740234	-641.5098876953125	1391.85546875	108.9093780517578	-896.77978515625	1381.923461914062	174.4705505371094	-836.2181396484375	1447.982421875	3.979591608047485	-728.988037109375	1466.797241210938	-64.86963653564453	-730.2698974609375	1341.550415039062	-145.9326477050781	-695.3695068359375	1121.823120117188	-161.9478302001953	-790.1767578125	1104.26904296875	-128.664794921875	-563.9083251953125	914.1298217773438	-72.82752227783203	-586.587890625	875.3206176757812	-147.2631988525391	-655.8511352539062	1043.123901367188	-155.8435516357422	-565.2811889648438	820.0440063476562	-130.2127227783203	-525.4229125976562	843.225341796875	-80.26676940917969	-771.9185180664062	1462.98681640625	259.3397827148438	-805.4869384765625	1400.847900390625	323.6824645996094	-849.980224609375	1115.38037109375	367.8590393066406	-900.5213623046875	1103.00634765625	330.8921813964844	-739.6038208007812	880.2280883789062	358.6678771972656	-798.7232666015625	867.4540405273438	416.2516174316406	-847.9220581054688	1059.770385742188	377.6984252929688	-749.0828857421875	707.056640625	369.2485961914062	-725.1088256835938	786.8641967773438	381.1451721191406	-790.0672607421875	791.4935302734375	418.4284057617188	-733.9014892578125	1677.75390625	167.0056304931641	-560.840087890625	1693.451538085938	52.874267578125	-596.7724609375	1694.406860351562	192.5776977539062	-685.683837890625	1674.871215820312	8.391402244567871	-745.0777587890625	923.1360473632812	-88.39705657958984	-764.1460571289062	948.9116821289062	302.1095275878906	-679.7512817382812	973.5050048828125	241.4182586669922	-665.623291015625	946.0226440429688	-33.12506866455078	-784.3545532226562	483.2941589355469	-9.404743194580078	-755.2141723632812	644.36962890625	-51.04380798339844	-917.578369140625	31.74958419799805	16.76152038574219	-877.83349609375	246.3330841064453	-2.991065979003906	-710.6743774414062	39.3481559753418	79.75691223144531	-782.32470703125	40.17021560668945	112.4997177124023	-794.0159912109375	34.88234710693359	5.103864192962646	-989.4826049804688	34.43622970581055	69.04653930664062	-595.88623046875	531.8308715820312	280.6903076171875	-688.5100708007812	807.400634765625	307.9580688476562	-599.534423828125	46.06826400756836	285.3536376953125	-567.3767700195312	386.5628967285156	277.2931823730469	-390.1940612792969	104.1425704956055	255.4919586181641	-446.7912902832031	87.26516723632812	210.7893218994141	-472.7727355957031	72.98680114746094	311.4248962402344	-648.9293212890625	30.84488487243652	226.2096862792969	-524.327880859375	749.8748168945312	-56.24823379516602	nan	nan	nan	
